<?xml version="1.0" encoding="UTF-8"?>
<svg id="Layer_1" xmlns="http://www.w3.org/2000/svg" version="1.1" viewBox="0 0 4397.2 6111.6">
  <!-- Generator: Adobe Illustrator 30.6.0, SVG Export Plug-In . SVG Version: 2.1.4 Build 109)  -->
  <defs>
    <style>
      .st0 {
        fill: #135eab;
      }

      .st1 {
        fill: #fff;
      }

      .st2 {
        fill: #808285;
        font-family: Helvetica, Helvetica;
        font-size: 20px;
      }

      .st3 {
        fill: #0083ca;
      }
    </style>
  </defs>
  <text class="st2" transform="translate(0 5824.3376)"><tspan x="0" y="0">4</tspan></text>
  <g>
    <path class="st1" d="M1904.3,189.2v-.9c5.1-16.3,7.7-29.6,7.7-40v-80.3c0-10.1-2.4-22.2-7.3-36.3v-.9h24l88.7,130v-89.1c0-10.4-2.6-23.8-7.7-40v-.9h24.2v.9c-5.1,16.3-7.7,29.6-7.7,40v117.5h-13l-92.4-135.5v94.6c0,10.4,2.6,23.8,7.7,40v.9h-24.2Z"/>
    <path class="st1" d="M2046.6,158.6c0-12.5,5.2-21.4,15.5-26.9s20.7-8.2,31.1-8.2,10,.5,15.4,1.5c2.9.4,5.2,1,6.8,1.5v-14.5c0-8.2-2-14.5-6.1-18.9-4-4.4-9.1-6.6-15.3-6.6s-13.8,2.8-21.9,8.5c-8.1,5.6-14.3,11.2-18.4,16.6h-.7v-23.5c15-6,28.8-9,41.6-9s21.5,2.9,28.5,8.7c7,5.8,10.4,13.9,10.4,24.3v57.2c0,4.8,1,8,3,9.4,2,1.4,3.9,2.1,5.8,2.1s3.3-.3,5.1-.9l.2.7c-3.1,6.3-8.2,9.5-15.4,9.5s-8.5-1.4-11.5-4.1c-3-2.7-4.7-6.6-5.2-11.5-8.5,11-19.8,16.5-33.9,16.5s-19.2-3.2-25.6-9.5c-6.4-6.3-9.6-13.9-9.6-22.7ZM2066,157.1c0,6.7,2.4,12.3,7.1,16.7,4.8,4.4,10.5,6.6,17,6.6,9.5,0,18-4.7,25.3-14.1v-33.7c-.9,0-1.5,0-2-.2-5.1-1-10-1.5-14.5-1.5-7.8,0-15.2,2.1-22.3,6.4-7.1,4.3-10.7,10.9-10.7,19.8Z"/>
    <path class="st1" d="M2169.6,94.2c9.1-10,20.1-15,33-15s22.8,5,30.6,15v-35.2c0-11.1-1.8-20.8-5.5-28.8v-.7l23.8-3.7v133.1c0,7.8,1.4,17.7,4.2,29.7v.7h-17.4c-.3-1-1-3.5-2.1-7.4-1.1-3.9-1.9-7.2-2.3-10-8.7,12.6-20.1,18.9-34.3,18.9s-23-4.8-31.2-14.5c-8.2-9.7-12.3-23-12.3-40s4.5-32,13.6-42ZM2183.7,167.4c5.1,8.8,12.5,13.2,22.2,13.2s18.9-5.4,27.3-16.1v-62.3c-7.2-8.5-15.6-12.8-25.3-12.8s-17.6,4.1-23.3,12.3c-5.7,8.2-8.6,19.2-8.6,33s2.6,23.9,7.7,32.6Z"/>
    <path class="st1" d="M2279.8,30.6c2.6-2.5,5.8-3.7,9.5-3.7s7,1.3,9.7,3.9c2.6,2.6,4,5.7,4,9.3s-1.3,6.8-4,9.4c-2.6,2.6-5.9,3.9-9.7,3.9s-6.8-1.3-9.5-3.9c-2.6-2.6-4-5.7-4-9.4s1.3-6.8,4-9.5ZM2276.9,188.5c2.8-12,4.2-21.9,4.2-29.7v-48.2c0-7.8-1.4-17.7-4.2-29.7v-.7h22v78.5c0,7.8,1.4,17.7,4.2,29.7v.7h-26.2v-.7Z"/>
    <path class="st1" d="M2321.4,158.6c0-12.5,5.2-21.4,15.5-26.9s20.7-8.2,31.1-8.2,10,.5,15.4,1.5c2.9.4,5.2,1,6.8,1.5v-14.5c0-8.2-2-14.5-6.1-18.9-4-4.4-9.1-6.6-15.3-6.6s-13.8,2.8-21.9,8.5c-8.1,5.6-14.3,11.2-18.4,16.6h-.7v-23.5c15-6,28.8-9,41.6-9s21.5,2.9,28.5,8.7c7,5.8,10.4,13.9,10.4,24.3v57.2c0,4.8,1,8,3,9.4,2,1.4,3.9,2.1,5.8,2.1s3.3-.3,5.1-.9l.2.7c-3.1,6.3-8.2,9.5-15.4,9.5s-8.5-1.4-11.5-4.1c-3-2.7-4.7-6.6-5.2-11.5-8.5,11-19.8,16.5-33.9,16.5s-19.2-3.2-25.6-9.5c-6.4-6.3-9.6-13.9-9.6-22.7ZM2340.7,157.1c0,6.7,2.4,12.3,7.1,16.7,4.8,4.4,10.5,6.6,17,6.6,9.5,0,18-4.7,25.3-14.1v-33.7c-.9,0-1.5,0-2-.2-5.1-1-10-1.5-14.5-1.5-7.8,0-15.2,2.1-22.3,6.4-7.1,4.3-10.7,10.9-10.7,19.8Z"/>
    <path class="st1" d="M1904.3,378.2v-.7c2.8-12,4.2-21.9,4.2-29.7v-97.7c0-7.8-1.4-17.7-4.2-29.7v-.7h27.7v.7c-2.8,12-4.2,21.9-4.2,29.7v43.6h79v-43.6c0-7.8-1.4-17.7-4.2-29.7v-.7h27.5v.7c-2.8,12-4.2,21.9-4.2,29.7v97.7c0,7.8,1.4,17.7,4.2,29.7v.7h-27.5v-.7c2.8-12,4.2-21.9,4.2-29.7v-45.8h-79v45.8c0,7.8,1.4,17.7,4.2,29.7v.7h-27.7Z"/>
    <path class="st1" d="M2046.2,323.6c0-16.6,4.7-30,14.2-40.3,9.5-10.3,21.4-15.4,35.8-15.4s24.9,4.8,33.2,14.4c8.4,9.6,12.5,22.1,12.5,37.5h-75.7c.1,13.9,3.5,25.3,10.1,34,6.6,8.7,15.9,13.1,27.9,13.1s25.2-5.9,37-17.6l.9.4c-4.1,9.1-10.2,16.4-18.1,21.9-8,5.5-17.1,8.2-27.2,8.2s-26.2-5.1-36-15.4c-9.8-10.3-14.6-23.9-14.6-40.9ZM2122.7,311.8c-.6-11.3-3.2-20.2-7.7-26.8-4.5-6.6-10.9-9.9-18.9-9.9s-15.8,3.7-20.9,11c-5.1,7.3-8.1,16.7-8.8,28.2l56.3-2.4Z"/>
    <path class="st1" d="M2158.8,347.8v-48.2c0-7.8-1.4-17.7-4.2-29.7v-.7h22.2v18.5c10-13.2,21.9-19.8,35.9-19.8s18.4,3,25.3,9.1c6.9,6.1,10.3,15.6,10.3,28.5v42.2c0,7.8,1.4,17.7,4.2,29.7v.7h-26.4v-.7c2.8-12,4.2-21.9,4.2-29.7v-40.3c0-8.9-2.3-15.7-7-20.4-4.7-4.6-10.5-6.9-17.4-6.9-9.8,0-19.5,4.8-29,14.3v53.2c0,7.8,1.4,17.7,4.2,29.7v.7h-26.4v-.7c2.8-12,4.2-21.9,4.2-29.7Z"/>
    <path class="st1" d="M2270.6,270v-.7h22.2v17.6c4.5-7.6,9.9-12.8,16.1-15.5,6.2-2.7,11.6-4.1,16.3-4.1s7.4.6,11.2,1.8l-2.6,21.1h-.7c-3.7-3.1-7.2-5.1-10.5-6-3.3-1-6-1.4-8.2-1.4s-5.7.5-9.6,1.6c-3.9,1.1-7.9,3.9-12,8.2v55.2c0,7.8,1.4,17.7,4.2,29.7v.7h-26.4v-.7c2.8-12,4.2-21.9,4.2-29.7v-48.2c0-7.8-1.4-17.7-4.2-29.7Z"/>
    <path class="st1" d="M2355.7,219.6c2.6-2.5,5.8-3.7,9.5-3.7s7,1.3,9.7,3.9c2.6,2.6,4,5.7,4,9.3s-1.3,6.8-4,9.4c-2.6,2.6-5.9,3.9-9.7,3.9s-6.8-1.3-9.5-3.9c-2.6-2.6-4-5.7-4-9.4s1.3-6.8,4-9.5ZM2352.8,377.5c2.8-12,4.2-21.9,4.2-29.7v-48.2c0-7.8-1.4-17.7-4.2-29.7v-.7h22v78.5c0,7.8,1.4,17.7,4.2,29.7v.7h-26.2v-.7Z"/>
    <path class="st1" d="M2410.9,282.7c9.2-10,20.2-15,33-15s22.3,4.8,30.4,14.5v-13h22.4v.7c-2.8,12-4.2,21.9-4.2,29.7v92.2c0,7.8,1.4,17.7,4.2,29.7v.7h-26.6v-.7c2.8-12,4.2-21.9,4.2-29.7v-31.5c-8.2,12.6-19.7,18.9-34.3,18.9s-22.9-4.8-30.9-14.4c-8-9.6-12-22.8-12-39.5s4.6-32.6,13.9-42.7ZM2416.9,324.1c0,12.8,2.6,23.3,7.7,31.7,5.1,8.4,12.5,12.5,22,12.5s19.5-5.5,27.7-16.5v-62c-7.2-8.2-15.5-12.3-25.1-12.3s-17.9,4.3-23.6,12.9c-5.8,8.6-8.7,19.8-8.7,33.8Z"/>
    <path class="st1" d="M2513.4,269.3h22.4v70.8c0,8.9,2.3,15.7,6.9,20.2,4.6,4.5,10.5,6.8,17.5,6.8s19.1-4.6,28.8-13.9c-.1-1.9-.2-4.2-.2-6.8v-46.9c0-7.8-1.4-17.7-4.2-29.7v-.7h22.4v78.5c0,7.8,1.4,17.7,4.2,29.7v.7h-19.8c-.9-3.5-1.5-9.6-2-18.3-10.4,13.2-22.4,19.8-36.1,19.8s-18.4-3-25.4-9.1c-7-6.1-10.5-15.6-10.5-28.5v-42.5c0-7.8-1.4-17.7-4.2-29.7v-.7Z"/>
    <path class="st1" d="M2625.6,323.6c0-16.6,4.7-30,14.2-40.3,9.5-10.3,21.4-15.4,35.8-15.4s24.9,4.8,33.2,14.4c8.4,9.6,12.5,22.1,12.5,37.5h-75.7c.1,13.9,3.5,25.3,10.1,34,6.6,8.7,15.9,13.1,27.9,13.1s25.2-5.9,37-17.6l.9.4c-4.1,9.1-10.2,16.4-18.1,21.9-8,5.5-17.1,8.2-27.2,8.2s-26.2-5.1-36-15.4c-9.8-10.3-14.6-23.9-14.6-40.9ZM2702.2,311.8c-.6-11.3-3.2-20.2-7.7-26.8-4.5-6.6-10.9-9.9-18.9-9.9s-15.8,3.7-20.9,11c-5.1,7.3-8.1,16.7-8.8,28.2l56.3-2.4Z"/>
    <path class="st1" d="M1904.9,503.6v-7.7h143.6v7.7h-143.6Z"/>
    <path class="st1" d="M2077.3,566.3c5.1-15.8,7.7-29.2,7.7-40v-86.9c0-7.9-2.1-17.8-6.2-29.7v-.7h26l52.8,136.8,53.2-137.1h23.1v.7c-2.8,12-4.2,21.9-4.2,29.7v97.7c0,7.8,1.4,17.7,4.2,29.7v.7h-27.3v-.7c2.8-12,4.2-21.9,4.2-29.7v-105.4l-52.6,135.7h-9v-.2l-3.3.2-52.1-135.1c0,.9,0,2.1-.1,3.7,0,1.6-.1,2.8-.1,3.5v86.9c0,10.9,2.6,24.2,7.7,40v1.1h-24v-1.1Z"/>
    <path class="st1" d="M2252.6,458.3h22.4v70.8c0,8.9,2.3,15.7,6.9,20.2,4.6,4.5,10.5,6.8,17.5,6.8s19.1-4.6,28.8-13.9c-.1-1.9-.2-4.2-.2-6.8v-46.9c0-7.8-1.4-17.7-4.2-29.7v-.7h22.4v78.5c0,7.8,1.4,17.7,4.2,29.7v.7h-19.8c-.9-3.5-1.5-9.6-2-18.3-10.4,13.2-22.4,19.8-36.1,19.8s-18.4-3-25.4-9.1c-7-6.1-10.5-15.6-10.5-28.5v-42.5c0-7.8-1.4-17.7-4.2-29.7v-.7Z"/>
    <path class="st1" d="M2368.8,459v-.7h22.2v17.6c4.5-7.6,9.9-12.8,16.1-15.5,6.2-2.7,11.6-4.1,16.3-4.1s7.4.6,11.2,1.8l-2.6,21.1h-.7c-3.7-3.1-7.2-5.1-10.5-6-3.3-1-6-1.4-8.2-1.4s-5.7.5-9.6,1.6c-3.9,1.1-7.9,3.9-12,8.2v55.2c0,7.8,1.4,17.7,4.2,29.7v.7h-26.4v-.7c2.8-12,4.2-21.9,4.2-29.7v-48.2c0-7.8-1.4-17.7-4.2-29.7Z"/>
    <path class="st1" d="M2445.8,459v-.7h22.2v17.6c4.5-7.6,9.9-12.8,16.1-15.5,6.2-2.7,11.6-4.1,16.3-4.1s7.4.6,11.2,1.8l-2.6,21.1h-.7c-3.7-3.1-7.2-5.1-10.5-6-3.3-1-6-1.4-8.2-1.4s-5.7.5-9.6,1.6c-3.9,1.1-7.9,3.9-12,8.2v55.2c0,7.8,1.4,17.7,4.2,29.7v.7h-26.4v-.7c2.8-12,4.2-21.9,4.2-29.7v-48.2c0-7.8-1.4-17.7-4.2-29.7Z"/>
    <path class="st1" d="M2518.6,536.6c0-12.5,5.2-21.4,15.5-26.9s20.7-8.2,31.1-8.2,10,.5,15.4,1.5c2.9.4,5.2,1,6.8,1.5v-14.5c0-8.2-2-14.5-6.1-18.9-4-4.4-9.1-6.6-15.3-6.6s-13.8,2.8-21.9,8.5c-8.1,5.6-14.3,11.2-18.4,16.6h-.7v-23.5c15-6,28.8-9,41.6-9s21.5,2.9,28.5,8.7c7,5.8,10.4,13.9,10.4,24.3v57.2c0,4.8,1,8,3,9.4,2,1.4,3.9,2.1,5.8,2.1s3.3-.3,5.1-.9l.2.7c-3.1,6.3-8.2,9.5-15.4,9.5s-8.5-1.4-11.5-4.1c-3-2.7-4.7-6.6-5.2-11.5-8.5,11-19.8,16.5-33.9,16.5s-19.2-3.2-25.6-9.5c-6.4-6.3-9.6-13.9-9.6-22.7ZM2538,535.1c0,6.7,2.4,12.3,7.1,16.7,4.8,4.4,10.5,6.6,17,6.6,9.5,0,18-4.7,25.3-14.1v-33.7c-.9,0-1.5,0-2-.2-5.1-1-10-1.5-14.5-1.5-7.8,0-15.2,2.1-22.3,6.4-7.1,4.3-10.7,10.9-10.7,19.8Z"/>
    <path class="st1" d="M2612.6,459v-.7h34.3v.7c-1.3,2.2-2,5.6-2,10.1s0,2.1.1,5c0,2.9,1.2,6.9,3.4,12l25.7,60.1,23.5-59.8c2.2-5.6,3.3-10.8,3.3-15.6s-.8-8-2.4-11.7v-.7h20.5v.7c-3.8,5.4-7.3,12.2-10.3,20.2l-42.9,108.2c-6.2,15.8-15.7,23.8-28.6,23.8s-11.7-1.5-18.5-4.4l4-18.9.4-.2c2.9,2.8,6,5,9.2,6.6,3.2,1.6,5.8,2.5,7.7,2.6,1.9.1,3.1.2,3.5.2,2.8,0,5.6-1,8.5-3s5.2-5.2,6.9-9.8l5.7-14.7-35.9-83.8c-5.6-12.5-11-21.4-16.3-26.8Z"/>
  </g>
  <g>
    <path class="st3" d="M3572.4,189.2v-.9c5.1-16.3,7.7-29.6,7.7-40v-80.3c0-10.1-2.4-22.2-7.3-36.3v-.9h24l88.7,130v-89.1c0-10.4-2.6-23.8-7.7-40v-.9h24.2v.9c-5.1,16.3-7.7,29.6-7.7,40v117.5h-13l-92.4-135.5v94.6c0,10.4,2.6,23.8,7.7,40v.9h-24.2Z"/>
    <path class="st3" d="M3714.7,158.6c0-12.5,5.2-21.4,15.5-26.9s20.7-8.2,31.1-8.2,10,.5,15.4,1.5c2.9.4,5.2,1,6.8,1.5v-14.5c0-8.2-2-14.5-6-18.9-4-4.4-9.1-6.6-15.3-6.6s-13.8,2.8-21.9,8.5c-8.1,5.6-14.3,11.2-18.4,16.6h-.7v-23.5c15-6,28.8-9,41.6-9s21.5,2.9,28.5,8.7c7,5.8,10.4,13.9,10.4,24.3v57.2c0,4.8,1,8,3,9.4,2,1.4,3.9,2.1,5.8,2.1s3.3-.3,5.1-.9l.2.7c-3.1,6.3-8.2,9.5-15.4,9.5s-8.5-1.4-11.5-4.1c-3-2.7-4.7-6.6-5.2-11.5-8.5,11-19.8,16.5-33.9,16.5s-19.2-3.2-25.6-9.5c-6.4-6.3-9.6-13.9-9.6-22.7ZM3734.1,157.1c0,6.7,2.4,12.3,7.2,16.7,4.8,4.4,10.5,6.6,17,6.6,9.5,0,18-4.7,25.3-14.1v-33.7c-.9,0-1.5,0-2-.2-5.1-1-10-1.5-14.5-1.5-7.8,0-15.2,2.1-22.3,6.4-7.1,4.3-10.7,10.9-10.7,19.8Z"/>
    <path class="st3" d="M3837.7,94.2c9.1-10,20.1-15,33-15s22.8,5,30.6,15v-35.2c0-11.1-1.8-20.8-5.5-28.8v-.7l23.8-3.7v133.1c0,7.8,1.4,17.7,4.2,29.7v.7h-17.4c-.3-1-1-3.5-2.1-7.4-1.1-3.9-1.9-7.2-2.3-10-8.7,12.6-20.1,18.9-34.3,18.9s-23-4.8-31.2-14.5c-8.2-9.7-12.3-23-12.3-40s4.5-32,13.6-42ZM3851.8,167.4c5.1,8.8,12.5,13.2,22.2,13.2s18.9-5.4,27.3-16.1v-62.3c-7.2-8.5-15.6-12.8-25.3-12.8s-17.6,4.1-23.3,12.3c-5.7,8.2-8.6,19.2-8.6,33s2.6,23.9,7.7,32.6Z"/>
    <path class="st3" d="M3947.9,30.6c2.6-2.5,5.8-3.7,9.5-3.7s7,1.3,9.7,3.9c2.6,2.6,4,5.7,4,9.3s-1.3,6.8-4,9.4c-2.6,2.6-5.9,3.9-9.7,3.9s-6.8-1.3-9.5-3.9c-2.6-2.6-4-5.7-4-9.4s1.3-6.8,4-9.5ZM3945.1,188.5c2.8-12,4.2-21.9,4.2-29.7v-48.2c0-7.8-1.4-17.7-4.2-29.7v-.7h22v78.5c0,7.8,1.4,17.7,4.2,29.7v.7h-26.2v-.7Z"/>
    <path class="st3" d="M3989.5,158.6c0-12.5,5.2-21.4,15.5-26.9s20.7-8.2,31.1-8.2,10,.5,15.4,1.5c2.9.4,5.2,1,6.8,1.5v-14.5c0-8.2-2-14.5-6.1-18.9-4-4.4-9.1-6.6-15.3-6.6s-13.8,2.8-21.9,8.5c-8.1,5.6-14.3,11.2-18.4,16.6h-.7v-23.5c15-6,28.8-9,41.6-9s21.5,2.9,28.5,8.7c7,5.8,10.5,13.9,10.5,24.3v57.2c0,4.8,1,8,3,9.4,2,1.4,3.9,2.1,5.8,2.1s3.3-.3,5.1-.9l.2.7c-3.1,6.3-8.2,9.5-15.4,9.5s-8.5-1.4-11.5-4.1c-3-2.7-4.7-6.6-5.2-11.5-8.5,11-19.8,16.5-33.9,16.5s-19.2-3.2-25.6-9.5c-6.4-6.3-9.6-13.9-9.6-22.7ZM4008.9,157.1c0,6.7,2.4,12.3,7.1,16.7,4.8,4.4,10.5,6.6,17,6.6,9.5,0,18-4.7,25.3-14.1v-33.7c-.9,0-1.5,0-2-.2-5.1-1-10-1.5-14.5-1.5-7.8,0-15.2,2.1-22.3,6.4-7.1,4.3-10.7,10.9-10.7,19.8Z"/>
    <path class="st3" d="M3572.4,378.2v-.7c2.8-12,4.2-21.9,4.2-29.7v-97.7c0-7.8-1.4-17.7-4.2-29.7v-.7h27.7v.7c-2.8,12-4.2,21.9-4.2,29.7v43.6h79v-43.6c0-7.8-1.4-17.7-4.2-29.7v-.7h27.5v.7c-2.8,12-4.2,21.9-4.2,29.7v97.7c0,7.8,1.4,17.7,4.2,29.7v.7h-27.5v-.7c2.8-12,4.2-21.9,4.2-29.7v-45.8h-79v45.8c0,7.8,1.4,17.7,4.2,29.7v.7h-27.7Z"/>
    <path class="st3" d="M3714.3,323.6c0-16.6,4.7-30,14.2-40.3,9.5-10.3,21.4-15.4,35.8-15.4s24.9,4.8,33.2,14.4c8.4,9.6,12.5,22.1,12.5,37.5h-75.7c.1,13.9,3.5,25.3,10.1,34,6.6,8.7,15.9,13.1,27.9,13.1s25.2-5.9,37-17.6l.9.4c-4.1,9.1-10.2,16.4-18.2,21.9-8,5.5-17,8.2-27.2,8.2s-26.2-5.1-36-15.4c-9.8-10.3-14.6-23.9-14.6-40.9ZM3790.9,311.8c-.6-11.3-3.2-20.2-7.7-26.8-4.5-6.6-10.9-9.9-18.9-9.9s-15.8,3.7-20.9,11c-5.1,7.3-8.1,16.7-8.8,28.2l56.3-2.4Z"/>
    <path class="st3" d="M3826.9,347.8v-48.2c0-7.8-1.4-17.7-4.2-29.7v-.7h22.2v18.5c10-13.2,21.9-19.8,35.9-19.8s18.4,3,25.3,9.1c6.9,6.1,10.3,15.6,10.3,28.5v42.2c0,7.8,1.4,17.7,4.2,29.7v.7h-26.4v-.7c2.8-12,4.2-21.9,4.2-29.7v-40.3c0-8.9-2.3-15.7-7-20.4-4.7-4.6-10.5-6.9-17.4-6.9-9.8,0-19.5,4.8-29,14.3v53.2c0,7.8,1.4,17.7,4.2,29.7v.7h-26.4v-.7c2.8-12,4.2-21.9,4.2-29.7Z"/>
    <path class="st3" d="M3938.7,270v-.7h22.2v17.6c4.5-7.6,9.9-12.8,16.1-15.5,6.2-2.7,11.6-4.1,16.3-4.1s7.4.6,11.2,1.8l-2.6,21.1h-.7c-3.7-3.1-7.2-5.1-10.5-6-3.3-1-6-1.4-8.2-1.4s-5.7.5-9.6,1.6c-3.9,1.1-7.9,3.9-12,8.2v55.2c0,7.8,1.4,17.7,4.2,29.7v.7h-26.4v-.7c2.8-12,4.2-21.9,4.2-29.7v-48.2c0-7.8-1.4-17.7-4.2-29.7Z"/>
    <path class="st3" d="M4023.8,219.6c2.6-2.5,5.8-3.7,9.5-3.7s7,1.3,9.7,3.9c2.6,2.6,4,5.7,4,9.3s-1.3,6.8-4,9.4c-2.6,2.6-5.9,3.9-9.7,3.9s-6.8-1.3-9.5-3.9c-2.6-2.6-4-5.7-4-9.4s1.3-6.8,4-9.5ZM4021,377.5c2.8-12,4.2-21.9,4.2-29.7v-48.2c0-7.8-1.4-17.7-4.2-29.7v-.7h22v78.5c0,7.8,1.4,17.7,4.2,29.7v.7h-26.2v-.7Z"/>
    <path class="st3" d="M4079,282.7c9.2-10,20.2-15,33-15s22.3,4.8,30.4,14.5v-13h22.4v.7c-2.8,12-4.2,21.9-4.2,29.7v92.2c0,7.8,1.4,17.7,4.2,29.7v.7h-26.6v-.7c2.8-12,4.2-21.9,4.2-29.7v-31.5c-8.2,12.6-19.7,18.9-34.3,18.9s-22.9-4.8-30.9-14.4c-8-9.6-12-22.8-12-39.5s4.6-32.6,13.9-42.7ZM4085,324.1c0,12.8,2.6,23.3,7.7,31.7,5.1,8.4,12.5,12.5,22,12.5s19.5-5.5,27.7-16.5v-62c-7.2-8.2-15.5-12.3-25.1-12.3s-17.9,4.3-23.7,12.9c-5.8,8.6-8.7,19.8-8.7,33.8Z"/>
    <path class="st3" d="M4181.6,269.3h22.4v70.8c0,8.9,2.3,15.7,6.9,20.2,4.6,4.5,10.5,6.8,17.5,6.8s19.1-4.6,28.8-13.9c-.1-1.9-.2-4.2-.2-6.8v-46.9c0-7.8-1.4-17.7-4.2-29.7v-.7h22.4v78.5c0,7.8,1.4,17.7,4.2,29.7v.7h-19.8c-.9-3.5-1.5-9.6-2-18.3-10.4,13.2-22.4,19.8-36.1,19.8s-18.4-3-25.4-9.1c-7-6.1-10.5-15.6-10.5-28.5v-42.5c0-7.8-1.4-17.7-4.2-29.7v-.7Z"/>
    <path class="st3" d="M4293.8,323.6c0-16.6,4.7-30,14.2-40.3,9.5-10.3,21.4-15.4,35.8-15.4s24.9,4.8,33.2,14.4c8.4,9.6,12.5,22.1,12.5,37.5h-75.7c.1,13.9,3.5,25.3,10.1,34,6.6,8.7,15.9,13.1,27.9,13.1s25.2-5.9,37-17.6l.9.4c-4.1,9.1-10.2,16.4-18.1,21.9-8,5.5-17.1,8.2-27.2,8.2s-26.2-5.1-36-15.4c-9.8-10.3-14.6-23.9-14.6-40.9ZM4370.3,311.8c-.6-11.3-3.2-20.2-7.7-26.8-4.5-6.6-10.9-9.9-18.9-9.9s-15.8,3.7-20.9,11c-5.1,7.3-8.1,16.7-8.8,28.2l56.3-2.4Z"/>
    <path class="st3" d="M3573.1,503.6v-7.7h173.6v7.7h-173.6Z"/>
    <path class="st3" d="M3733.4,566.3c5.1-15.8,7.7-29.2,7.7-40v-86.9c0-7.9-2.1-17.8-6.2-29.7v-.7h26l52.8,136.8,53.2-137.1h23.1v.7c-2.8,12-4.2,21.9-4.2,29.7v97.7c0,7.8,1.4,17.7,4.2,29.7v.7h-27.3v-.7c2.8-12,4.2-21.9,4.2-29.7v-105.4l-52.6,135.7h-9v-.2l-3.3.2-52.1-135.1c0,.9,0,2.1-.1,3.7,0,1.6-.1,2.8-.1,3.5v86.9c0,10.9,2.6,24.2,7.7,40v1.1h-24v-1.1Z"/>
    <path class="st3" d="M3908.8,458.3h22.4v70.8c0,8.9,2.3,15.7,6.9,20.2,4.6,4.5,10.5,6.8,17.5,6.8s19.1-4.6,28.8-13.9c-.1-1.9-.2-4.2-.2-6.8v-46.9c0-7.8-1.4-17.7-4.2-29.7v-.7h22.4v78.5c0,7.8,1.4,17.7,4.2,29.7v.7h-19.8c-.9-3.5-1.5-9.6-2-18.3-10.4,13.2-22.4,19.8-36.1,19.8s-18.4-3-25.4-9.1c-7-6.1-10.5-15.6-10.5-28.5v-42.5c0-7.8-1.4-17.7-4.2-29.7v-.7Z"/>
    <path class="st3" d="M4024.9,459v-.7h22.2v17.6c4.5-7.6,9.9-12.8,16.1-15.5,6.2-2.7,11.6-4.1,16.3-4.1s7.4.6,11.2,1.8l-2.6,21.1h-.7c-3.7-3.1-7.2-5.1-10.5-6-3.3-1-6-1.4-8.2-1.4s-5.7.5-9.6,1.6c-3.9,1.1-7.9,3.9-12,8.2v55.2c0,7.8,1.4,17.7,4.2,29.7v.7h-26.4v-.7c2.8-12,4.2-21.9,4.2-29.7v-48.2c0-7.8-1.4-17.7-4.2-29.7Z"/>
    <path class="st3" d="M4101.9,459v-.7h22.2v17.6c4.5-7.6,9.9-12.8,16.1-15.5,6.2-2.7,11.6-4.1,16.3-4.1s7.4.6,11.2,1.8l-2.6,21.1h-.7c-3.7-3.1-7.2-5.1-10.5-6-3.3-1-6-1.4-8.2-1.4s-5.7.5-9.6,1.6c-3.9,1.1-7.9,3.9-12,8.2v55.2c0,7.8,1.4,17.7,4.2,29.7v.7h-26.4v-.7c2.8-12,4.2-21.9,4.2-29.7v-48.2c0-7.8-1.4-17.7-4.2-29.7Z"/>
    <path class="st3" d="M4174.7,536.6c0-12.5,5.2-21.4,15.5-26.9s20.7-8.2,31.1-8.2,10,.5,15.4,1.5c2.9.4,5.2,1,6.8,1.5v-14.5c0-8.2-2-14.5-6-18.9-4-4.4-9.1-6.6-15.3-6.6s-13.8,2.8-21.9,8.5c-8.1,5.6-14.3,11.2-18.4,16.6h-.7v-23.5c15-6,28.8-9,41.6-9s21.5,2.9,28.5,8.7c7,5.8,10.4,13.9,10.4,24.3v57.2c0,4.8,1,8,3,9.4,2,1.4,3.9,2.1,5.8,2.1s3.3-.3,5.1-.9l.2.7c-3.1,6.3-8.2,9.5-15.4,9.5s-8.5-1.4-11.5-4.1c-3-2.7-4.7-6.6-5.2-11.5-8.5,11-19.8,16.5-33.9,16.5s-19.2-3.2-25.6-9.5c-6.4-6.3-9.6-13.9-9.6-22.7ZM4194.1,535.1c0,6.7,2.4,12.3,7.2,16.7,4.8,4.4,10.5,6.6,17,6.6,9.5,0,18-4.7,25.3-14.1v-33.7c-.9,0-1.5,0-2-.2-5.1-1-10-1.5-14.5-1.5-7.8,0-15.2,2.1-22.3,6.4-7.1,4.3-10.7,10.9-10.7,19.8Z"/>
    <path class="st3" d="M4268.7,459v-.7h34.3v.7c-1.3,2.2-2,5.6-2,10.1s0,2.1.1,5c0,2.9,1.2,6.9,3.4,12l25.7,60.1,23.5-59.8c2.2-5.6,3.3-10.8,3.3-15.6s-.8-8-2.4-11.7v-.7h20.5v.7c-3.8,5.4-7.3,12.2-10.3,20.2l-42.9,108.2c-6.2,15.8-15.7,23.8-28.6,23.8s-11.7-1.5-18.5-4.4l4-18.9.4-.2c2.9,2.8,6,5,9.2,6.6,3.2,1.6,5.8,2.5,7.7,2.6,1.9.1,3.1.2,3.5.2,2.8,0,5.6-1,8.5-3,2.9-2,5.2-5.2,6.9-9.8l5.7-14.7-35.9-83.8c-5.6-12.5-11-21.4-16.3-26.8Z"/>
  </g>
  <rect class="st0" x="34.4" y="5973.1" width="343.3" height="138.5"/>
  <rect class="st1" x="1904.3" y="645" width="818.4" height="23.8"/>
  <rect class="st1" x="1904.3" y="694.5" width="818.4" height="23.8"/>
  <rect class="st1" x="1904.3" y="744" width="818.4" height="23.8"/>
</svg>