<?xml version="1.0" encoding="UTF-8"?><svg id="b" xmlns="http://www.w3.org/2000/svg" viewBox="0 0 818.41 742.12"><defs><style>.d{fill:#0083ca;}</style></defs><g id="c"><path class="d" d="M0,163.46v-.88c5.13-16.28,7.7-29.62,7.7-40.04V42.24C7.7,32.12,5.28,20.02.44,5.94v-.88h23.98l88.66,130.02V45.98c0-10.41-2.57-23.76-7.7-40.04v-.88h24.2v.88c-5.14,16.28-7.7,29.63-7.7,40.04v117.48h-12.98L16.5,27.94v94.6c0,10.42,2.56,23.76,7.7,40.04v.88H0Z"/><path class="d" d="M142.34,132.88c0-12.46,5.17-21.45,15.51-26.95s20.71-8.25,31.13-8.25c4.84,0,9.97.52,15.4,1.54,2.93.44,5.2.96,6.82,1.54v-14.52c0-8.21-2.02-14.52-6.05-18.92-4.04-4.4-9.13-6.6-15.29-6.6s-13.75,2.83-21.89,8.47c-8.14,5.65-14.27,11.19-18.37,16.61h-.66v-23.54c14.96-6.01,28.82-9.02,41.58-9.02,12.02,0,21.52,2.9,28.49,8.69,6.96,5.8,10.45,13.9,10.45,24.31v57.2c0,4.84.99,7.96,2.97,9.35,1.98,1.4,3.92,2.09,5.83,2.09,1.61,0,3.3-.29,5.06-.88l.22.66c-3.08,6.31-8.22,9.46-15.4,9.46-4.7,0-8.55-1.35-11.55-4.07-3.01-2.71-4.73-6.56-5.17-11.55-8.51,11-19.8,16.5-33.88,16.5-10.71,0-19.25-3.15-25.63-9.46-6.38-6.3-9.57-13.86-9.57-22.66ZM161.7,131.34c0,6.75,2.38,12.32,7.15,16.72,4.76,4.4,10.45,6.6,17.05,6.6,9.53,0,17.96-4.69,25.3-14.08v-33.66c-.88,0-1.54-.07-1.98-.22-5.14-1.02-9.98-1.54-14.52-1.54-7.78,0-15.22,2.13-22.33,6.38-7.12,4.26-10.67,10.86-10.67,19.8Z"/><path class="d" d="M265.32,68.42c9.09-9.97,20.09-14.96,33-14.96s22.8,4.99,30.58,14.96v-35.2c0-11.14-1.84-20.75-5.5-28.82v-.66l23.76-3.74v133.1c0,7.78,1.39,17.68,4.18,29.7v.66h-17.38c-.3-1.02-.99-3.48-2.09-7.37-1.1-3.88-1.87-7.22-2.31-10.01-8.66,12.62-20.1,18.92-34.32,18.92-12.62,0-23.03-4.84-31.24-14.52-8.22-9.68-12.32-23.02-12.32-40.04,0-18.04,4.54-32.04,13.64-42.02ZM279.4,141.68c5.13,8.8,12.54,13.2,22.22,13.2s18.92-5.35,27.28-16.06v-62.26c-7.19-8.5-15.62-12.76-25.3-12.76s-17.6,4.11-23.32,12.32c-5.72,8.22-8.58,19.22-8.58,33,0,13.06,2.56,23.91,7.7,32.56Z"/><path class="d" d="M375.54,4.84c2.64-2.49,5.79-3.74,9.46-3.74s7.04,1.29,9.68,3.85c2.64,2.57,3.96,5.69,3.96,9.35s-1.32,6.79-3.96,9.35c-2.64,2.57-5.87,3.85-9.68,3.85s-6.82-1.28-9.46-3.85c-2.64-2.56-3.96-5.68-3.96-9.35s1.32-6.82,3.96-9.46ZM372.68,162.8c2.78-12.02,4.18-21.92,4.18-29.7v-48.18c0-7.77-1.4-17.67-4.18-29.7v-.66h22v78.54c0,7.78,1.39,17.68,4.18,29.7v.66h-26.18v-.66Z"/><path class="d" d="M417.12,132.88c0-12.46,5.17-21.45,15.51-26.95s20.71-8.25,31.13-8.25c4.84,0,9.97.52,15.4,1.54,2.93.44,5.2.96,6.82,1.54v-14.52c0-8.21-2.02-14.52-6.05-18.92-4.04-4.4-9.13-6.6-15.29-6.6s-13.75,2.83-21.89,8.47c-8.14,5.65-14.27,11.19-18.37,16.61h-.66v-23.54c14.96-6.01,28.82-9.02,41.58-9.02,12.02,0,21.52,2.9,28.49,8.69,6.96,5.8,10.45,13.9,10.45,24.31v57.2c0,4.84.99,7.96,2.97,9.35,1.98,1.4,3.92,2.09,5.83,2.09,1.61,0,3.3-.29,5.06-.88l.22.66c-3.08,6.31-8.22,9.46-15.4,9.46-4.7,0-8.55-1.35-11.55-4.07-3.01-2.71-4.73-6.56-5.17-11.55-8.51,11-19.8,16.5-33.88,16.5-10.71,0-19.25-3.15-25.63-9.46-6.38-6.3-9.57-13.86-9.57-22.66ZM436.48,131.34c0,6.75,2.38,12.32,7.15,16.72,4.76,4.4,10.45,6.6,17.05,6.6,9.53,0,17.96-4.69,25.3-14.08v-33.66c-.88,0-1.54-.07-1.98-.22-5.14-1.02-9.98-1.54-14.52-1.54-7.78,0-15.22,2.13-22.33,6.38-7.12,4.26-10.67,10.86-10.67,19.8Z"/><path class="d" d="M0,352.46v-.66c2.78-12.02,4.18-21.92,4.18-29.7v-97.68c0-7.77-1.4-17.67-4.18-29.7v-.66h27.72v.66c-2.79,12.03-4.18,21.93-4.18,29.7v43.56h78.98v-43.56c0-7.77-1.4-17.67-4.18-29.7v-.66h27.5v.66c-2.79,12.03-4.18,21.93-4.18,29.7v97.68c0,7.78,1.39,17.68,4.18,29.7v.66h-27.5v-.66c2.78-12.02,4.18-21.92,4.18-29.7v-45.76H23.54v45.76c0,7.78,1.39,17.68,4.18,29.7v.66H0Z"/><path class="d" d="M141.9,297.9c0-16.57,4.73-29.99,14.19-40.26,9.46-10.26,21.37-15.4,35.75-15.4s24.86,4.81,33.22,14.41c8.36,9.61,12.54,22.11,12.54,37.51h-75.68c.14,13.94,3.52,25.27,10.12,33.99,6.6,8.73,15.91,13.09,27.94,13.09,12.9,0,25.22-5.86,36.96-17.6l.88.44c-4.11,9.1-10.16,16.39-18.15,21.89-8,5.5-17.05,8.25-27.17,8.25-14.23,0-26.22-5.13-35.97-15.4-9.76-10.26-14.63-23.9-14.63-40.92ZM218.46,286.02c-.59-11.29-3.16-20.24-7.7-26.84-4.55-6.6-10.86-9.9-18.92-9.9-8.8,0-15.77,3.67-20.9,11-5.14,7.34-8.07,16.72-8.8,28.16l56.32-2.42Z"/><path class="d" d="M254.54,322.1v-48.18c0-7.77-1.4-17.67-4.18-29.7v-.66h22.22v18.48c9.97-13.2,21.92-19.8,35.86-19.8,9.97,0,18.4,3.05,25.3,9.13,6.89,6.09,10.34,15.59,10.34,28.49v42.24c0,7.78,1.39,17.68,4.18,29.7v.66h-26.4v-.66c2.78-12.02,4.18-21.92,4.18-29.7v-40.26c0-8.94-2.35-15.73-7.04-20.35-4.7-4.62-10.49-6.93-17.38-6.93-9.83,0-19.51,4.77-29.04,14.3v53.24c0,7.78,1.39,17.68,4.18,29.7v.66h-26.4v-.66c2.78-12.02,4.18-21.92,4.18-29.7Z"/><path class="d" d="M366.29,244.22v-.66h22.22v17.6c4.54-7.62,9.9-12.79,16.06-15.51,6.16-2.71,11.58-4.07,16.28-4.07,3.66,0,7.4.59,11.22,1.76l-2.64,21.12h-.66c-3.67-3.08-7.15-5.09-10.45-6.05-3.3-.95-6.05-1.43-8.25-1.43-2.5,0-5.69.55-9.57,1.65-3.89,1.1-7.89,3.85-11.99,8.25v55.22c0,7.78,1.39,17.68,4.18,29.7v.66h-26.4v-.66c2.78-12.02,4.18-21.92,4.18-29.7v-48.18c0-7.77-1.4-17.67-4.18-29.7Z"/><path class="d" d="M451.43,193.84c2.64-2.49,5.79-3.74,9.46-3.74s7.04,1.29,9.68,3.85c2.64,2.57,3.96,5.69,3.96,9.35s-1.32,6.79-3.96,9.35c-2.64,2.57-5.87,3.85-9.68,3.85s-6.82-1.28-9.46-3.85c-2.64-2.56-3.96-5.68-3.96-9.35s1.32-6.82,3.96-9.46ZM448.57,351.8c2.78-12.02,4.18-21.92,4.18-29.7v-48.18c0-7.77-1.4-17.67-4.18-29.7v-.66h22v78.54c0,7.78,1.39,17.68,4.18,29.7v.66h-26.18v-.66Z"/><path class="d" d="M506.65,256.98c9.24-9.97,20.24-14.96,33-14.96s22.29,4.84,30.36,14.52v-12.98h22.44v.66c-2.79,12.03-4.18,21.93-4.18,29.7v92.18c0,7.77,1.39,17.67,4.18,29.7v.66h-26.62v-.66c2.78-12.03,4.18-21.93,4.18-29.7v-31.46c-8.22,12.62-19.66,18.92-34.32,18.92-12.62,0-22.92-4.8-30.91-14.41-8-9.6-11.99-22.77-11.99-39.49,0-18.33,4.62-32.56,13.86-42.68ZM512.59,298.34c0,12.76,2.56,23.32,7.7,31.68,5.13,8.36,12.46,12.54,22,12.54,10.26,0,19.5-5.5,27.72-16.5v-62.04c-7.19-8.21-15.55-12.32-25.08-12.32s-17.86,4.29-23.65,12.87c-5.8,8.58-8.69,19.84-8.69,33.77Z"/><path class="d" d="M609.17,243.56h22.44v70.84c0,8.95,2.31,15.7,6.93,20.24,4.62,4.55,10.45,6.82,17.49,6.82,9.53,0,19.14-4.62,28.82-13.86-.15-1.9-.22-4.18-.22-6.82v-46.86c0-7.77-1.4-17.67-4.18-29.7v-.66h22.44v78.54c0,7.78,1.39,17.68,4.18,29.7v.66h-19.8c-.88-3.52-1.54-9.6-1.98-18.26-10.42,13.2-22.44,19.8-36.08,19.8-9.98,0-18.45-3.04-25.41-9.13-6.97-6.08-10.45-15.58-10.45-28.49v-42.46c0-7.77-1.4-17.67-4.18-29.7v-.66Z"/><path class="d" d="M721.37,297.9c0-16.57,4.73-29.99,14.19-40.26,9.46-10.26,21.37-15.4,35.75-15.4s24.86,4.81,33.22,14.41c8.36,9.61,12.54,22.11,12.54,37.51h-75.68c.14,13.94,3.52,25.27,10.12,33.99,6.6,8.73,15.91,13.09,27.94,13.09,12.9,0,25.22-5.86,36.96-17.6l.88.44c-4.11,9.1-10.16,16.39-18.15,21.89-8,5.5-17.05,8.25-27.17,8.25-14.23,0-26.22-5.13-35.97-15.4-9.76-10.26-14.63-23.9-14.63-40.92ZM797.93,286.02c-.59-11.29-3.16-20.24-7.7-26.84-4.55-6.6-10.86-9.9-18.92-9.9-8.8,0-15.77,3.67-20.9,11-5.14,7.34-8.07,16.72-8.8,28.16l56.32-2.42Z"/><path class="d" d="M.66,477.88v-7.7h143.58v7.7H.66Z"/><path class="d" d="M173.04,540.58c5.13-15.84,7.7-29.18,7.7-40.04v-86.9c0-7.92-2.06-17.82-6.16-29.7v-.66h25.96l52.8,136.84,53.24-137.06h23.1v.66c-2.79,12.03-4.18,21.93-4.18,29.7v97.68c0,7.78,1.39,17.68,4.18,29.7v.66h-27.28v-.66c2.78-12.02,4.18-21.92,4.18-29.7v-105.38l-52.58,135.74h-9.02v-.22l-3.3.22-52.14-135.08c0,.88-.04,2.13-.11,3.74-.08,1.62-.11,2.79-.11,3.52v86.9c0,10.86,2.56,24.2,7.7,40.04v1.1h-23.98v-1.1Z"/><path class="d" d="M348.37,432.56h22.44v70.84c0,8.95,2.31,15.7,6.93,20.24,4.62,4.55,10.45,6.82,17.49,6.82,9.53,0,19.14-4.62,28.82-13.86-.15-1.9-.22-4.18-.22-6.82v-46.86c0-7.77-1.4-17.67-4.18-29.7v-.66h22.44v78.54c0,7.78,1.39,17.68,4.18,29.7v.66h-19.8c-.88-3.52-1.54-9.6-1.98-18.26-10.42,13.2-22.44,19.8-36.08,19.8-9.98,0-18.45-3.04-25.41-9.13-6.97-6.08-10.45-15.58-10.45-28.49v-42.46c0-7.77-1.4-17.67-4.18-29.7v-.66Z"/><path class="d" d="M464.53,433.22v-.66h22.22v17.6c4.54-7.62,9.9-12.79,16.06-15.51,6.16-2.71,11.58-4.07,16.28-4.07,3.66,0,7.4.59,11.22,1.76l-2.64,21.12h-.66c-3.67-3.08-7.15-5.09-10.45-6.05-3.3-.95-6.05-1.43-8.25-1.43-2.5,0-5.69.55-9.57,1.65-3.89,1.1-7.89,3.85-11.99,8.25v55.22c0,7.78,1.39,17.68,4.18,29.7v.66h-26.4v-.66c2.78-12.02,4.18-21.92,4.18-29.7v-48.18c0-7.77-1.4-17.67-4.18-29.7Z"/><path class="d" d="M541.53,433.22v-.66h22.22v17.6c4.54-7.62,9.9-12.79,16.06-15.51,6.16-2.71,11.58-4.07,16.28-4.07,3.66,0,7.4.59,11.22,1.76l-2.64,21.12h-.66c-3.67-3.08-7.15-5.09-10.45-6.05-3.3-.95-6.05-1.43-8.25-1.43-2.5,0-5.69.55-9.57,1.65-3.89,1.1-7.89,3.85-11.99,8.25v55.22c0,7.78,1.39,17.68,4.18,29.7v.66h-26.4v-.66c2.78-12.02,4.18-21.92,4.18-29.7v-48.18c0-7.77-1.4-17.67-4.18-29.7Z"/><path class="d" d="M614.35,510.88c0-12.46,5.17-21.45,15.51-26.95s20.71-8.25,31.13-8.25c4.84,0,9.97.52,15.4,1.54,2.93.44,5.2.96,6.82,1.54v-14.52c0-8.21-2.02-14.52-6.05-18.92-4.04-4.4-9.13-6.6-15.29-6.6s-13.75,2.83-21.89,8.47c-8.14,5.65-14.27,11.19-18.37,16.61h-.66v-23.54c14.96-6.01,28.82-9.02,41.58-9.02,12.02,0,21.52,2.9,28.49,8.69,6.96,5.8,10.45,13.9,10.45,24.31v57.2c0,4.84.99,7.96,2.97,9.35,1.98,1.4,3.92,2.09,5.83,2.09,1.61,0,3.3-.29,5.06-.88l.22.66c-3.08,6.31-8.22,9.46-15.4,9.46-4.7,0-8.55-1.35-11.55-4.07-3.01-2.71-4.73-6.56-5.17-11.55-8.51,11-19.8,16.5-33.88,16.5-10.71,0-19.25-3.15-25.63-9.46-6.38-6.3-9.57-13.86-9.57-22.66ZM633.71,509.34c0,6.75,2.38,12.32,7.15,16.72,4.76,4.4,10.45,6.6,17.05,6.6,9.53,0,17.96-4.69,25.3-14.08v-33.66c-.88,0-1.54-.07-1.98-.22-5.14-1.02-9.98-1.54-14.52-1.54-7.78,0-15.22,2.13-22.33,6.38-7.12,4.26-10.67,10.86-10.67,19.8Z"/><path class="d" d="M708.29,433.22v-.66h34.32v.66c-1.32,2.2-1.98,5.58-1.98,10.12,0,.44.03,2.09.11,4.95.07,2.86,1.21,6.86,3.41,11.99l25.74,60.06,23.54-59.84c2.2-5.57,3.3-10.78,3.3-15.62,0-4.1-.81-7.99-2.42-11.66v-.66h20.46v.66c-3.82,5.43-7.26,12.18-10.34,20.24l-42.9,108.24c-6.16,15.84-15.7,23.76-28.6,23.76-5.58,0-11.74-1.47-18.48-4.4l3.96-18.92.44-.22c2.93,2.78,6.01,4.98,9.24,6.6,3.22,1.61,5.79,2.49,7.7,2.64,1.9.14,3.08.22,3.52.22,2.78,0,5.61-.99,8.47-2.97s5.17-5.25,6.93-9.79l5.72-14.74-35.86-83.82c-5.58-12.46-11-21.41-16.28-26.84Z"/><rect class="d" y="619.25" width="818.41" height="23.82"/><rect class="d" y="668.77" width="818.41" height="23.82"/><rect class="d" y="718.3" width="818.41" height="23.82"/></g></svg>