<?xml version="1.0" encoding="UTF-8"?>
<svg id="b" xmlns="http://www.w3.org/2000/svg" version="1.1" viewBox="0 0 901.5 854.8">
  <!-- Generator: Adobe Illustrator 30.6.0, SVG Export Plug-In . SVG Version: 2.1.4 Build 109)  -->
  <defs>
    <style>
      .st0 {
        fill: #fff;
      }
    </style>
  </defs>
  <g id="c">
    <path class="st0" d="M0,180.3v-1c5.6-18,8.5-32.6,8.5-44.1V46.7C8.5,35.5,5.8,22.2.4,6.6v-1h26.5l97.8,143.4V50.7c0-11.5-2.9-26.3-8.5-44.1v-1h26.7v1c-5.6,18-8.5,32.6-8.5,44.1v129.6h-14.3L18.2,30.9v104.3c0,11.5,2.9,26.3,8.5,44.1v1H0Z"/>
    <path class="st0" d="M157,146.6c0-13.8,5.7-23.6,17.1-29.7,11.4-6.1,22.8-9,34.3-9s11,.6,17,1.7c3.2.4,5.7,1.1,7.5,1.7v-16c0-9-2.2-16-6.7-20.8-4.4-4.9-10-7.3-16.9-7.3s-15.2,3.1-24.2,9.4c-8.9,6.3-15.8,12.4-20.3,18.3h-.8v-25.9c16.5-6.6,31.8-9.9,45.9-9.9s23.7,3.2,31.4,9.6,11.5,15.3,11.5,26.8v63.1c0,5.3,1.1,8.8,3.3,10.4s4.3,2.3,6.4,2.3,3.6-.3,5.6-1l.2.8c-3.4,6.9-9,10.5-17,10.5s-9.5-1.5-12.8-4.5-5.2-7.3-5.7-12.8c-9.4,12.1-21.8,18.2-37.4,18.2s-21.2-3.4-28.2-10.5c-7.1-6.9-10.6-15.3-10.6-25h.3ZM178.4,144.9c0,7.5,2.6,13.6,7.8,18.4,5.3,4.9,11.5,7.3,18.9,7.3,10.5,0,19.9-5.2,27.9-15.6v-37.2c-1,0-1.7,0-2.2-.2-5.6-1.1-11-1.7-16-1.7-8.6,0-16.8,2.3-24.6,7.1s-11.8,12-11.8,21.8h0Z"/>
    <path class="st0" d="M292.6,75.4c10-11,22.2-16.5,36.4-16.5s25.1,5.5,33.8,16.5v-38.8c0-12.2-2-22.9-6.1-31.8v-.8l26.3-4.1v146.8c0,8.6,1.5,19.5,4.6,32.8v.8h-19.2c-.3-1.1-1.1-3.9-2.3-8.2s-2.1-7.9-2.5-11c-9.6,13.9-22.2,20.8-37.8,20.8s-25.4-5.3-34.4-16c-9-10.7-13.6-25.4-13.6-44.1s5-35.3,15-46.3h-.1ZM308.2,156.3c5.6,9.7,13.8,14.6,24.5,14.6s20.8-6,30.1-17.8v-68.7c-7.9-9.4-17.2-14.1-27.9-14.1s-19.4,4.5-25.7,13.6c-6.3,9-9.5,21.2-9.5,36.4s2.9,26.4,8.5,36h0Z"/>
    <path class="st0" d="M414.2,5.4c2.9-2.8,6.4-4.1,10.5-4.1s7.7,1.4,10.7,4.2c2.9,2.9,4.4,6.3,4.4,10.4s-1.4,7.5-4.4,10.4c-2.9,2.9-6.5,4.3-10.7,4.3s-7.5-1.4-10.5-4.3c-2.9-2.9-4.4-6.3-4.4-10.4s1.4-7.5,4.4-10.5ZM411.1,179.6c3.1-13.2,4.6-24.2,4.6-32.8v-53.2c0-8.6-1.5-19.5-4.6-32.8v-.8h24.3v86.6c0,8.6,1.5,19.5,4.6,32.8v.8h-28.9v-.8h0Z"/>
    <path class="st0" d="M460.1,146.6c0-13.8,5.7-23.6,17.1-29.7,11.4-6.1,22.8-9,34.3-9s11,.6,17,1.7c3.2.4,5.7,1.1,7.5,1.7v-16c0-9-2.2-16-6.6-20.8s-10-7.3-16.9-7.3-15.2,3.1-24.2,9.4c-8.9,6.3-15.8,12.4-20.3,18.3h-.8v-25.9c16.5-6.6,31.8-9.9,45.9-9.9s23.7,3.2,31.4,9.6c7.7,6.4,11.6,15.3,11.6,26.8v63.1c0,5.3,1.1,8.8,3.3,10.4s4.3,2.3,6.4,2.3,3.6-.3,5.6-1l.2.8c-3.4,6.9-9,10.5-17,10.5s-9.4-1.5-12.7-4.5-5.2-7.3-5.7-12.8c-9.4,12.1-21.8,18.2-37.4,18.2s-21.2-3.4-28.2-10.5c-7.1-6.9-10.6-15.3-10.6-25h0ZM481.5,144.9c0,7.5,2.6,13.6,7.8,18.4,5.3,4.9,11.6,7.3,18.8,7.3,10.5,0,19.9-5.2,27.9-15.6v-37.2c-1,0-1.7,0-2.2-.2-5.6-1.1-11-1.7-16-1.7-8.6,0-16.8,2.3-24.6,7.1-7.8,4.7-11.8,12-11.8,21.8h.1Z"/>
    <path class="st0" d="M0,388.8v-.8c3.1-13.2,4.6-24.2,4.6-32.8v-107.8c0-8.6-1.5-19.5-4.6-32.8v-.8h30.6v.8c-3.1,13.2-4.6,24.2-4.6,32.8v48.1h87.1v-48.1c0-8.6-1.5-19.5-4.6-32.8v-.8h30.3v.8c-3.1,13.2-4.6,24.2-4.6,32.8v107.8c0,8.6,1.5,19.5,4.6,32.8v.8h-30.3v-.8c3.1-13.2,4.6-24.2,4.6-32.8v-50.5H25.9v50.5c0,8.6,1.5,19.5,4.6,32.8v.8H0Z"/>
    <path class="st0" d="M156.5,328.6c0-18.3,5.2-33.1,15.7-44.5s23.6-17,39.5-17,27.5,5.3,36.6,15.9c9.3,10.6,13.8,24.4,13.8,41.4h-83.5c.1,15.3,3.9,27.9,11.1,37.5,7.3,9.6,17.5,14.4,30.8,14.4s27.8-6.5,40.8-19.4l1,.4c-4.5,10-11.3,18.1-20,24.2-8.8,6.1-18.9,9-30,9s-28.9-5.6-39.7-17c-10.8-11.4-16.1-26.4-16.1-45.1h0ZM241,315.5c-.7-12.5-3.5-22.3-8.5-29.6-5.1-7.3-12-10.9-20.8-10.9s-17.4,4.1-23.1,12.1c-5.6,8.1-8.9,18.4-9.7,31.1l62.1-2.6h0Z"/>
    <path class="st0" d="M280.7,355.3v-53.2c0-8.6-1.5-19.5-4.6-32.8v-.8h24.5v20.4c11-14.6,24.2-21.8,39.6-21.8s20.3,3.4,27.9,10c7.6,6.7,11.4,17.2,11.4,31.4v46.5c0,8.6,1.5,19.5,4.6,32.8v.8h-29.1v-.8c3.1-13.2,4.6-24.2,4.6-32.8v-44.5c0-9.8-2.6-17.3-7.7-22.5-5.2-5.1-11.6-7.6-19.2-7.6-10.8,0-21.5,5.3-32,15.8v58.7c0,8.6,1.5,19.5,4.6,32.8v.8h-29.1v-.8c3.1-13.2,4.6-24.2,4.6-32.8h0v.2Z"/>
    <path class="st0" d="M404,269.4v-.8h24.5v19.4c5-8.4,10.9-14.1,17.8-17.1s12.8-4.5,18-4.5,8.2.7,12.4,2l-2.9,23.3h-.8c-4.1-3.4-7.8-5.6-11.6-6.6-3.6-1.1-6.6-1.5-9-1.5s-6.3.6-10.6,1.8-8.7,4.3-13.2,9v60.9c0,8.6,1.5,19.5,4.6,32.8v.8h-29.1v-.8c3.1-13.2,4.6-24.2,4.6-32.8v-53.2c0-8.6-1.5-19.5-4.6-32.8h0Z"/>
    <path class="st0" d="M497.9,213.9c2.9-2.8,6.4-4.1,10.5-4.1s7.7,1.4,10.7,4.3c2.9,2.9,4.4,6.3,4.4,10.4s-1.4,7.5-4.4,10.4c-2.9,2.9-6.5,4.3-10.7,4.3s-7.5-1.4-10.5-4.3c-2.9-2.9-4.4-6.3-4.4-10.4s1.4-7.5,4.4-10.5h0ZM494.8,388c3.1-13.2,4.6-24.2,4.6-32.8v-53.2c0-8.6-1.5-19.5-4.6-32.8v-.8h24.3v86.6c0,8.6,1.5,19.5,4.6,32.8v.8h-28.9v-.8h0Z"/>
    <path class="st0" d="M558.8,283.5c10.1-11,22.3-16.5,36.4-16.5s24.6,5.3,33.5,16v-14.3h24.7v.8c-3.1,13.2-4.6,24.2-4.6,32.8v101.7c0,8.6,1.5,19.5,4.6,32.8v.8h-29.3v-.8c3.1-13.2,4.6-24.2,4.6-32.8v-34.7c-9,13.9-21.7,20.8-37.8,20.8s-25.3-5.3-34.1-15.9c-8.8-10.6-13.2-25.1-13.2-43.6s5.1-36,15.3-47.1h-.1ZM565.4,329.1c0,14.1,2.9,25.7,8.5,35,5.6,9.3,13.8,13.8,24.3,13.8s21.5-6.1,30.6-18.2v-68.4c-7.9-9-17.1-13.6-27.7-13.6s-19.7,4.7-26.1,14.2-9.6,21.8-9.6,37.3h.1Z"/>
    <path class="st0" d="M672,268.7h24.7v78.1c0,9.9,2.5,17.3,7.6,22.3,5.1,5,11.6,7.5,19.3,7.5s21.1-5.1,31.8-15.3c-.2-2.1-.2-4.6-.2-7.5v-51.7c0-8.6-1.5-19.5-4.6-32.8v-.8h24.7v86.6c0,8.6,1.5,19.5,4.6,32.8v.8h-21.8c-1-3.9-1.7-10.6-2.2-20.2-11.5,14.6-24.7,21.8-39.8,21.8s-20.4-3.3-28-10c-7.7-6.7-11.6-17.2-11.6-31.4v-46.9c0-8.6-1.5-19.5-4.6-32.8v-.8h0l.2.3Z"/>
    <path class="st0" d="M795.7,328.6c0-18.3,5.2-33.1,15.7-44.5s23.6-17,39.5-17,27.5,5.3,36.6,15.9c9.3,10.6,13.8,24.4,13.8,41.4h-83.5c.1,15.3,3.9,27.9,11.1,37.5,7.3,9.6,17.5,14.4,30.8,14.4s27.8-6.5,40.8-19.4l1,.4c-4.5,10-11.3,18.1-20.1,24.2-8.8,6.1-18.8,9-30,9s-28.9-5.6-39.7-17c-10.8-11.4-16.1-26.4-16.1-45.1h.1ZM880.1,315.5c-.7-12.5-3.5-22.3-8.5-29.6-5-7.3-12-10.9-20.8-10.9s-17.4,4.1-23.1,12.1c-5.6,8.1-8.9,18.4-9.7,31.1l62.1-2.6h0Z"/>
    <path class="st0" d="M.8,527.1v-8.5h158.4v8.5H.8Z"/>
    <path class="st0" d="M190.8,596.3c5.6-17.4,8.5-32.2,8.5-44.1v-95.9c0-8.7-2.3-19.6-6.8-32.8v-.8h28.7l58.2,150.9,58.7-151.2h25.5v.8c-3.1,13.2-4.6,24.2-4.6,32.8v107.8c0,8.6,1.5,19.5,4.6,32.8v.8h-30.1v-.8c3.1-13.2,4.6-24.2,4.6-32.8v-116.3l-58,149.7h-9.9v-.2l-3.6.2-57.5-149c0,1,0,2.3-.1,4.1,0,1.8-.1,3.1-.1,3.9v95.9c0,12,2.9,26.7,8.5,44.1v1.2h-26.5v-1.2h0v.2Z"/>
    <path class="st0" d="M384.3,477.2h24.7v78.1c0,9.8,2.5,17.3,7.6,22.3s11.6,7.5,19.3,7.5,21.1-5.1,31.8-15.3c-.1-2.1-.2-4.6-.2-7.5v-51.7c0-8.6-1.5-19.5-4.6-32.8v-.8h24.7v86.6c0,8.6,1.5,19.5,4.6,32.8v.8h-21.8c-1-3.9-1.7-10.6-2.2-20.2-11.5,14.6-24.7,21.8-39.8,21.8s-20.4-3.3-28-10c-7.7-6.7-11.6-17.2-11.6-31.4v-46.9c0-8.6-1.5-19.5-4.6-32.8v-.8h0l.2.3Z"/>
    <path class="st0" d="M512.3,477.8v-.8h24.5v19.4c5-8.4,10.9-14.1,17.8-17.1,6.8-3,12.8-4.5,18-4.5s8.2.7,12.4,2l-2.9,23.3h-.8c-4.1-3.4-7.9-5.6-11.6-6.6-3.6-1.1-6.6-1.5-9-1.5s-6.3.6-10.6,1.8c-4.3,1.2-8.7,4.3-13.2,9v60.9c0,8.6,1.5,19.5,4.6,32.8v.8h-29.1v-.8c3.1-13.2,4.6-24.2,4.6-32.8v-53.2c0-8.6-1.5-19.5-4.6-32.8h0Z"/>
    <path class="st0" d="M597.3,477.8v-.8h24.5v19.4c5-8.4,10.9-14.1,17.8-17.1,6.8-3,12.8-4.5,18-4.5s8.2.7,12.4,2l-2.9,23.3h-.8c-4.1-3.4-7.9-5.6-11.6-6.6-3.6-1.1-6.6-1.5-9-1.5s-6.3.6-10.6,1.8c-4.3,1.2-8.7,4.3-13.2,9v60.9c0,8.6,1.5,19.5,4.6,32.8v.8h-29.1v-.8c3.1-13.2,4.6-24.2,4.6-32.8v-53.2c0-8.6-1.5-19.5-4.6-32.8h0Z"/>
    <path class="st0" d="M677.6,563.5c0-13.8,5.7-23.7,17.1-29.8,11.4-6.1,22.8-9,34.3-9s11,.6,17,1.7c3.2.4,5.7,1.1,7.5,1.7v-16c0-9-2.2-16-6.6-20.8s-10-7.3-16.9-7.3-15.2,3.1-24.2,9.4c-8.9,6.2-15.8,12.4-20.3,18.3h-.8v-25.9c16.5-6.6,31.8-9.9,45.9-9.9s23.7,3.2,31.4,9.6,11.6,15.3,11.6,26.8v63.1c0,5.3,1.1,8.8,3.3,10.3,2.2,1.5,4.3,2.3,6.4,2.3s3.6-.3,5.6-1l.2.8c-3.4,6.9-9,10.5-17,10.5s-9.4-1.4-12.7-4.5c-3.3-3-5.2-7.3-5.7-12.7-9.4,12.1-21.8,18.2-37.4,18.2s-21.2-3.5-28.2-10.5c-7.1-6.9-10.6-15.3-10.6-25h0ZM699,561.9c0,7.4,2.6,13.6,7.9,18.4s11.6,7.3,18.8,7.3c10.5,0,19.9-5.2,27.9-15.6v-37.2c-1,0-1.7,0-2.2-.2-5.6-1.1-11-1.7-16-1.7-8.6,0-16.8,2.3-24.6,7.1-7.8,4.7-11.8,12-11.8,21.8h0Z"/>
    <path class="st0" d="M781.3,477.8v-.8h37.8v.8c-1.4,2.4-2.2,6.2-2.2,11.1s0,2.3.1,5.5c0,3.2,1.3,7.6,3.8,13.2l28.3,66.3,25.9-66c2.4-6.2,3.6-11.9,3.6-17.2s-.9-8.8-2.6-12.9v-.8h22.6v.8c-4.2,6-8.1,13.5-11.4,22.3l-47.3,119.3c-6.8,17.4-17.3,26.3-31.5,26.3s-12.9-1.7-20.4-4.9l4.4-20.8.4-.2c3.2,3.1,6.6,5.5,10.1,7.3s6.4,2.8,8.5,2.9,3.4.2,3.9.2c3.1,0,6.2-1.1,9.4-3.3s5.7-5.7,7.6-10.8l6.3-16.2-39.6-92.4c-6.2-13.8-12.1-23.6-18-29.6h.2Z"/>
  </g>
  <rect class="st0" x=".9" y="683.8" width="886.6" height="27"/>
  <rect class="st0" x=".6" y="827.8" width="886.6" height="27"/>
  <rect class="st0" x=".6" y="827.8" width="886.6" height="27"/>
  <rect class="st0" x=".9" y="755.8" width="886.6" height="27"/>
</svg>